<?xml version="1.0" encoding="UTF-8" standalone="no"?>
<svg width="128" height="128" viewBox="0 0 128 128" fill="none" xmlns="http://www.w3.org/2000/svg">
  <!-- Dark background -->
  <rect width="128" height="128" rx="16" fill="#1E1E2E"/>
  
  <!-- Bonfire flames -->
  <path d="M64 20C64 20 52 40 52 52C52 64 58 72 64 72C70 72 76 64 76 52C76 40 64 20 64 20Z" fill="#FF5555"/>
  <path d="M64 24C64 24 56 40 56 50C56 60 60 68 64 68C68 68 72 60 72 50C72 40 64 24 64 24Z" fill="#FFAA55"/>
  <path d="M64 28C64 28 60 40 60 48C60 56 62 64 64 64C66 64 68 56 68 48C68 40 64 28 64 28Z" fill="#FFFF55"/>
  
  <!-- Sword -->
  <rect x="62" y="70" width="4" height="40" fill="#AAAAAA"/>
  <rect x="56" y="70" width="16" height="4" fill="#888888"/>
  <rect x="58" y="74" width="12" height="2" fill="#888888"/>
  
  <!-- Soul orb -->
  <circle cx="64" cy="50" r="8" fill="#55AAFF" fill-opacity="0.5"/>
  <circle cx="64" cy="50" r="6" fill="#55AAFF" fill-opacity="0.7"/>
  <circle cx="64" cy="50" r="4" fill="#55AAFF"/>
  
  <!-- Text -->
  <path d="M24 108H28V96H36V92H16V96H24V108Z" fill="white"/>
  <path d="M40 108H44V100H52V108H56V92H52V96H44V92H40V108Z" fill="white"/>
  <path d="M60 108H72V104H64V102H72V92H60V96H68V98H60V108Z" fill="white"/>
  <path d="M76 108H88V104H80V102H88V92H76V96H84V98H76V108Z" fill="white"/>
  <path d="M92 108H104V104H96V102H104V98H96V96H104V92H92V108Z" fill="white"/>
</svg>